<svg xmlns="http://www.w3.org/2000/svg" xmlns:xlink="http://www.w3.org/1999/xlink" width="307" zoomAndPan="magnify" viewBox="0 0 230.25 230.25" height="307" preserveAspectRatio="xMidYMid meet" version="1.0"><defs><clipPath id="2d747a920c"><path d="M 68.734375 85.746094 L 159.9375 85.746094 L 159.9375 176.949219 L 68.734375 176.949219 Z M 68.734375 85.746094 " clip-rule="nonzero"/></clipPath><clipPath id="61960b9e3d"><path d="M 101.78125 110.445312 L 159.9375 110.445312 L 159.9375 176.949219 L 101.78125 176.949219 Z M 101.78125 110.445312 " clip-rule="nonzero"/></clipPath><clipPath id="c484968c28"><path d="M 160.207031 131.480469 C 160.207031 156.742188 139.730469 177.21875 114.472656 177.21875 C 89.214844 177.21875 68.734375 156.742188 68.734375 131.480469 C 68.734375 106.222656 89.214844 85.746094 114.472656 85.746094 C 139.730469 85.746094 160.207031 106.222656 160.207031 131.480469 Z M 160.207031 131.480469 " clip-rule="nonzero"/></clipPath></defs><path fill="#fd1e52" d="M 66.722656 45.40625 C 74.792969 29.257812 91.296875 19.0625 109.347656 19.0625 L 119.410156 19.0625 C 137.460938 19.0625 153.960938 29.261719 162.035156 45.40625 L 170.558594 62.457031 C 172.914062 67.164062 171.003906 72.890625 166.296875 75.246094 C 161.589844 77.597656 155.863281 75.691406 153.507812 70.984375 L 144.984375 53.933594 C 140.140625 44.246094 130.238281 38.125 119.410156 38.125 L 109.347656 38.125 C 98.515625 38.125 88.617188 44.242188 83.773438 53.929688 L 75.246094 70.984375 C 72.890625 75.691406 67.164062 77.597656 62.457031 75.246094 C 57.75 72.890625 55.839844 67.164062 58.195312 62.457031 Z M 66.722656 45.40625 " fill-opacity="1" fill-rule="evenodd"/><path fill="#fd1e52" d="M 61.566406 57.1875 C 38.363281 57.1875 20.542969 77.738281 23.824219 100.707031 L 33.546875 168.773438 C 36.902344 192.253906 57.007812 209.691406 80.726562 209.691406 L 148.03125 209.691406 C 171.75 209.691406 191.859375 192.253906 195.210938 168.773438 L 204.9375 100.707031 C 208.214844 77.738281 190.394531 57.1875 167.191406 57.1875 Z M 149.492188 107.425781 C 153.332031 111.023438 153.527344 117.054688 149.925781 120.894531 L 114.183594 159.023438 C 110.769531 162.664062 105.121094 163.054688 101.238281 159.917969 L 79.792969 142.585938 C 75.699219 139.277344 75.0625 133.277344 78.371094 129.183594 C 81.679688 125.089844 87.679688 124.453125 91.773438 127.757812 L 106.332031 139.523438 L 136.019531 107.859375 C 139.617188 104.019531 145.648438 103.824219 149.492188 107.425781 Z M 149.492188 107.425781 " fill-opacity="1" fill-rule="evenodd"/><g clip-path="url(#2d747a920c)"><path fill="#ffffff" d="M 160.207031 131.480469 C 160.207031 156.742188 139.730469 177.21875 114.472656 177.21875 C 89.214844 177.21875 68.734375 156.742188 68.734375 131.480469 C 68.734375 106.222656 89.214844 85.746094 114.472656 85.746094 C 139.730469 85.746094 160.207031 106.222656 160.207031 131.480469 " fill-opacity="1" fill-rule="nonzero"/></g><g clip-path="url(#61960b9e3d)"><g clip-path="url(#c484968c28)"><path fill="#ffffff" d="M 180.5625 147.429688 L 143.640625 110.507812 L 101.804688 152.570312 L 135.300781 186.0625 L 180.5625 147.429688 " fill-opacity="1" fill-rule="nonzero"/></g></g><path fill="#fd1e52" d="M 143.640625 110.507812 C 142.417969 109.289062 140.792969 108.613281 139.066406 108.613281 C 137.339844 108.613281 135.714844 109.289062 134.492188 110.507812 L 106.269531 138.730469 L 94.449219 126.910156 C 93.230469 125.691406 91.605469 125.015625 89.878906 125.015625 C 88.148438 125.015625 86.527344 125.691406 85.304688 126.910156 C 82.78125 129.433594 82.78125 133.535156 85.304688 136.058594 L 101.636719 152.390625 C 101.65625 152.410156 101.675781 152.429688 101.695312 152.453125 C 102.007812 152.761719 102.347656 153.042969 102.710938 153.28125 C 103.769531 153.980469 105.003906 154.351562 106.277344 154.351562 C 108.003906 154.351562 109.628906 153.675781 110.847656 152.457031 C 110.90625 152.398438 142.304688 120.992188 143.640625 119.65625 C 144.863281 118.433594 145.535156 116.808594 145.535156 115.082031 C 145.535156 113.355469 144.863281 111.730469 143.640625 110.507812 " fill-opacity="1" fill-rule="nonzero"/></svg>