<?xml version="1.0" encoding="UTF-8"?>
<svg viewBox="0 0 206.67 194.67" xmlns="http://www.w3.org/2000/svg" xmlns:xlink="http://www.w3.org/1999/xlink">
 <defs>
  <linearGradient id="an" x1="2.3e-5" y1=".49999" y2=".49999" xlink:href="#ac"/>
  <linearGradient id="ai" x1=".59865" x2=".60042" y1="1.0681" y2="-.40122">
   <stop stop-color="#8f5200" offset="0"/>
   <stop offset="1"/>
  </linearGradient>
  <linearGradient id="am" x1=".069486" x2="1.0556" y1=".66392" y2=".13118" xlink:href="#ab"/>
  <linearGradient id="ak" x1=".41025" x2=".5" y1="1" y2=".29602" xlink:href="#ab"/>
  <linearGradient id="aj" x1=".35949" x2=".71924" y1="1.0685" y2="-.16198">
   <stop stop-color="#ffe100" offset="0"/>
   <stop stop-color="#aa9a21" offset="1"/>
  </linearGradient>
  <linearGradient id="al" x1="-.001804" y1=".5" y2=".5" xlink:href="#ac"/>
  <linearGradient id="ao" x1=".95151" x2=".29454" y1="1" y2=".29405" xlink:href="#ab"/>
  <linearGradient id="au" x1=".89794" x2=".365" y1=".2549" y2="1.33" xlink:href="#ad"/>
  <linearGradient id="ap" x1="1.5e-5" y1=".49998" y2=".49998" xlink:href="#ac"/>
  <linearGradient id="at" x1="-3.7e-5" x2="1.2685" y1="2.6865" y2="-.53911" xlink:href="#a"/>
  <linearGradient id="ar" x1=".2002" x2=".81985" y1="1.4839" y2=".24827" xlink:href="#a"/>
  <linearGradient id="aq" x1=".16891" x2=".78893" y1="2.229" y2=".49996" xlink:href="#a"/>
  <linearGradient id="as" x1="1.2318" x2=".17874" y1="1.5491" y2="6e-6" xlink:href="#a"/>
  <linearGradient id="av" x1="-2e-6" x2="1.0002" y1=".50001" y2=".50001">
   <stop stop-color="#f7c41f" stop-opacity=".753" offset="0"/>
   <stop stop-color="#fff170" stop-opacity="0" offset="1"/>
  </linearGradient>
  <linearGradient id="ac">
   <stop stop-color="#78a314" offset="0"/>
   <stop stop-color="#78a314" stop-opacity="0" offset="1"/>
  </linearGradient>
  <linearGradient id="a">
   <stop stop-color="#3d7b26" stop-opacity=".45" offset="0"/>
   <stop stop-color="#3d7b26" stop-opacity="0" offset="1"/>
  </linearGradient>
  <linearGradient id="af">
   <stop stop-color="#ff8d00" stop-opacity=".636" offset="0"/>
   <stop stop-color="#ff5f00" stop-opacity="0" offset="1"/>
  </linearGradient>
  <linearGradient id="ab">
   <stop stop-color="#e4e54e" offset="0"/>
   <stop stop-color="#94af32" offset="1"/>
  </linearGradient>
  <linearGradient id="ah" x1="1.167" x2="-2.1769" y1=".69081" y2=".34742" xlink:href="#a"/>
  <linearGradient id="ba" x1=".70458" x2=".63358" y1="1.2853" y2=".23023" xlink:href="#ad"/>
  <linearGradient id="ag" x1=".1888" x2=".47415" y1=".16905" y2="1.2982">
   <stop stop-color="#c7f937" offset="0"/>
   <stop stop-color="#9ac818" offset="1"/>
  </linearGradient>
  <linearGradient id="ae">
   <stop stop-color="#ff2800" offset="0"/>
   <stop stop-color="#610f00" offset="1"/>
  </linearGradient>
  <linearGradient id="ad">
   <stop stop-color="#9b380c" stop-opacity=".855" offset="0"/>
   <stop stop-color="#e9e112" stop-opacity=".251" offset="1"/>
  </linearGradient>
  <radialGradient id="az" cx="552.15" cy="516.86" r="189.65" gradientTransform="matrix(1.0709 -.70464 .46272 .70326 -511.24 364.43)" gradientUnits="userSpaceOnUse" xlink:href="#af"/>
  <radialGradient id="aw" cx="306.69" cy="743.17" r="188.04" gradientTransform="matrix(1.6432 .57536 -.42536 1.2148 121.24 -407.03)" gradientUnits="userSpaceOnUse" xlink:href="#af"/>
  <radialGradient id="ay" cx="-415.67" cy="667.13" r="95.153" gradientTransform="matrix(3.0376 1.4812 -1.0675 2.1892 2189 -244.28)" gradientUnits="userSpaceOnUse" xlink:href="#ae"/>
  <radialGradient id="ax" cx="-149.87" cy="685.36" r="104.12" gradientTransform="matrix(3.0871 -.56123 .26439 1.4543 808.62 -459)" gradientUnits="userSpaceOnUse" xlink:href="#ae"/>
 </defs>
 <g transform="matrix(.44537 0 0 .44537 -78.135 -131.53)">
  <g fill-rule="evenodd">
   <path d="m207.32 569.73c-20.545 26.673 11.895 91.913 56.229 111.02 44.334 19.104 69.698 25.73 125.43 21.627 58.752-4.3254 142.38-33.161 165.8-53.346 23.429-20.185 28.684-59.053 14.418-87.948-20.399-41.316-206.3-58.622-275.38-41.811-66.222 16.115-65.961 23.789-86.506 50.462z" fill="#fff"/>
   <path d="m207.32 569.73c-20.545 26.673 11.895 91.913 56.229 111.02 44.334 19.104 69.698 25.73 125.43 21.626 58.752-4.3253 142.38-33.161 165.8-53.346 23.429-20.185 28.684-59.053 14.418-87.948-20.399-41.316-206.3-58.622-275.38-41.811-66.222 16.115-65.961 23.789-86.506 50.462z" fill="url(#ba)"/>
   <path d="m207.32 569.73c-20.545 26.673 11.895 91.913 56.229 111.02 44.334 19.104 69.698 25.73 125.43 21.627 58.752-4.3254 142.38-33.161 165.8-53.346 23.429-20.185 28.684-59.053 14.418-87.948-20.399-41.316-206.3-58.622-275.38-41.811-66.222 16.115-65.961 23.789-86.506 50.462z" fill="url(#aw)"/>
   <path d="m223.53 543.95c-13.565-9.5064-35.041-0.87176-32.099 17.345 16.877 9.798-2.8277 15.827-12.393 11.544-5.253 6.9994-4.8936 16.196 2.0272 20.823-6.3224 8.3151-3.4754 20.977 9.578 16.788 5.4531-3.2414 17.628-7.6594 8.451 2.0266-7.6968 14.089 19.628-0.33643 13.772 15.242 1.9133 10.748-21.251 8.5959-5.7517 18.534 14.231 8.2819 25.101-13.119 37.904 1.4534 15.603 5.8984 25.473-7.3569 37.476-12.919 13.977 0.60242-3.8611 21.197 13.338 23.508 17.212 4.7737 32.784-2.7667 46.689-11.822 15.916-4.1487-2.0751 25.047 15.007 28.123 13.107-8.673 21.415 25.685 28.708 9.3604 1.6272-10.196 0.63791-25.435 15.12-17.803 8.997-5.4123 6.9564-34.271 22.75-22.145 5.0266 8.9302 13.388 17.138 21.517 6.4972 8.7843 5.128 22.093 9.8118 21.248 21.549 11.349 8.7528 27.082-24.102 25.802-0.29315 5.6205 12.271 12.238-8.2794 17.871-9.3442 14.27 11.023 17.972-5.5534 14.829-16.703 9.1863-9.9506-0.040222-28.106 17.944-30.052 6.7906-9.4438 17.088 19.7 24.967 5.3121 4.4195-10.987 13.445 12.941 20.734 0.48486 8.7735-14.844-12.141-35.367-26.806-27.844-9.5687 1.8831-1.1616-23.131-13.438-11.501-11.634 15.737-27.443-17.045-38.362 2.9325-9.773 16.228-29.022 20.098-44.343 28.83-11.436 3.3068-31.156 22.183-39.688 8.3512-7.4162 3.1802-14.016 8.957-20.271-1.0203-12.243-3.4077-23.965-15.268-36.242-4.0388-14.038-1.0143-32.975-9.9566-44.352 3.3525 5.4281 4.3898 13.931 10.643 0.72668 9.0261-9.8588-2.0639-19.016 10.754-25.966-1.461-9.3988-2.4534-19.784 4.0273-23.426-7.9193-10.126 1.8946-16.891-1.7353-22.066-10.191-8.9414-1.9348-16.709-2.4054-18.424-12.892-17.721-4.3577-11.776-29.782-21.618-41.26-13.189-13.571 6.8816-3.5361 8.7841-11.876z" fill="url(#ag)"/>
   <path d="m579.09 554.45c-2.1555-1.6166 5.3122-0.93176 7.9261-1.5852 3.4598-0.86499 4.074 2.3354 5.2841 4.7557 1.716 3.432-2.0876 4.7427-4.2273 5.8125-3.0201 1.5101-1.6607 4.718 0.5285 5.8126 3.1985 1.5992 4.8188 0.1264 6.3409 3.1705 1.5006 3.0012-3.7103 5.689-5.2841 6.8693-2.2146 1.6609-4.7058 3.1705-7.9262 3.1705-3.2318 0-7.2058 1.7296-8.4546 4.2273-0.96368 1.9276 2.1137 4.8727 2.1137 7.3977 0 2.8876 2.6795 4.2273 5.2841 4.2273 3.8506 0 3.7882 3.8698 3.1705 6.3409-1.1123 4.4488-8.6151 1.4247-4.7557 5.2841 1.9221 1.9222-1.0116 5.7672-2.1137 6.8693-1.016 1.016-5.5659-4.4298-6.8693-4.7557-3.0124-0.75311-6.4941 1.3976-8.983 2.642-3.701 1.8505-3.6989-4.1672-3.6989-6.3409 0-2.0787 3.3242-2.7958 5.2841-4.7557 1.8488-1.8488 3.0927-6.1853 4.2273-8.4546 1.4383-2.8766 3.1705-4.4652 3.1705-7.9262 0-2.2324 1.5711-6.2846 2.1136-8.4546 0.72198-2.8879 0.87207-5.602 1.5852-8.4545 0.66626-2.665 0.94867-5.3797 1.5853-7.9262 0.89435-3.5773 0.93805-4.475 3.6989-7.9262z" fill="url(#ah)"/>
   <path d="m575.57 533.83c8.7494 25.849 6.6127 86.604-63.497 102.38-38.144 8.5848-61.904 11.734-91.554 6.3989-14.994-2.698-43.469-40.398-48.73-64.481-6.905-31.608 30.534-61.179 56.606-71.373 46.431-18.154 149.98 20.773 147.18 27.072z" fill="url(#ax)"/>
   <path d="m350.14 504.06c-36.02-20.8-137.42-5.8944-143.24 36.425-3.5018 25.491-1.6783 33.708 15.259 62.02 19.408 32.443 134.61 41.512 161.94 10.337 21.231-24.219 6.8911-64.974 6.8911-64.974s-8.5665-25.164-40.855-43.808z" fill="url(#ay)"/>
   <path d="m211.05 488.54c-11.378 15.435-5.4064 28.942-3.5263 42.903 25.202 61.421 100.62 73.918 186.31 76.403 68.748-3.6382 132.86-15.88 179.84-59.947 0 0 19.688-27.182 7.6403-47.605s-55.833-34.088-55.833-34.088-72.436-22.039-151.04-16.456c-78.607 5.5833-163.38 38.789-163.38 38.789z" fill="url(#ai)"/>
   <path d="m422.79 382.83c61.784 36.152 126.95 52.005 185.35 108.46-31.946 33.052-81.429 50.676-129.12 62.549-53.531 13.328-109.06 17.895-154.94 49.925l-125.67-162.4 224.37-58.532z" fill="url(#aj)"/>
   <path d="m608.17 491.32l-4.6302-4.5016c-87.024 70.967-214.55 57.055-285.5 109.25l5.4483 8.1724c61.55-50.675 206.95-34.343 284.68-112.92z" fill="#ffe100"/>
   <path d="m397.14 485.34c-36.136 6.2972-68.799 12.858-66.438 42.394 1.4804 18.523 28.157 29.739 61.376 32.27s63.425-7.2217 71.5-22.146c11.034-20.391 7.9156-55.486-66.438-52.518z" fill="url(#ak)"/>
   <path d="m330.09 513.47s3.2306 20.884 29.537 29.076 48.344 11.653 75.689 3.6921c27.345-7.9612 33.691-35.537 33.691-35.537s3.4614 24.23-16.615 36.921c-20.076 12.692-32.753 14.843-63.689 13.846-14.307-0.46155-32.422-4.6152-47.075-16.615s-11.538-31.383-11.538-31.383z" fill="url(#al)"/>
   <path d="m223.08 448.29s-18.25 19.34-16.451 34.168c2.0539 16.93 38.872 27.621 57.58 25.31 22.593-2.7906 29.26-11.858 37.332-23.412 19.122-27.372-14.34-59.959-78.461-36.067z" fill="url(#am)"/>
   <path d="m207.79 472.39c18.719 28.02 47.895 31.204 86.304 12.461l-0.923 11.538c-15.464 11.418-35.358 16.191-65.535 5.5382-24.845-10.714-19.571-19.993-19.845-29.537z" fill="url(#an)"/>
   <path d="m525.59 514.45c17.414 5.7612 42.236 3.1638 53.151-4.4292 17.357-12.074 18.192-27.208 13.92-43.027-4.2711-15.819-5.4094-17.213-23.412-22.146-50.779-13.916-79.107 57.875-43.66 69.602z" fill="url(#ao)"/>
   <path d="m512.44 495s30.1 13.459 50.901 9.7887c20.801-3.6708 32.303-24.472 32.303-24.472-1.4739 13.811-4.6386 29.041-25.94 34.26-21.094 5.1681-41.816 2.8077-58.243-5.8732l0.9789-13.704z" fill="url(#ap)"/>
   <path d="m427.23 635.03c-1.8417-7.6113-7.6978-16.604-16.31-16.612-7.5984 2.1991-16.71 8.5811-19.612-3.2206-4.5025-11.604-14.743-1.5767-20.584 2.9045-8.3231 4.9854-18.679-4.2766-26.861 1.876-7.6737 5.0549-0.13092 11.996 3.3584 15.576-8.5544 5.8854-18.137-5.1556-26.931 0.47668-7.4935 5.2768-21.417 0.3523-24.615 10.881-1.804 12.506 14.328 11.576 22.61 10.776 8.2816 0.45056 19.08-12.305 22.622 1.1105 2.1706 11.444 16.222 1.878 22.088 8.8294 10.436 3.9481 3.2017 17.413 12.502 22.309 8.7473 9.1384 18.967-3.1784 19.031-12.261 6.1023 1.2016 15.904 7.4785 16.76-3.5461 0.3638-10.154 5.4265-18.235 14.439-22.407 4.4843-12.59 16.425-3.3142 25.077-3.7424 14.7-3.938 5.5037 20.566 19.933 16.445 9.9767-4.8682 11.743 5.8435 17.359 10.572 8.7431 5.5862 14.962-1.4788 18.314-8.952 7.9053-2.2269 9.9768 17.003 17.677 6.566 1.389-6.0218 3.718-13.959 11.303-8.1502 10.42 3.5128 7.3403-13.03 0.7497-13.448 7.3748-0.59381 23.65-12.215 10.984-17.314-4.3182-4.7216-9.9554-16.587-17.031-7.2016-7.207 10.926-13.23-5.7814-20.262-7.4501-9.7026-1.4054-12.744 11.542-22.434 10.275-7.3375 7.6844-18.356 5.9603-27.53 3.0444-9.6014-0.83228-19.155 0.44385-27.435 5.7145-4.874 1.8561-8.5624 5.1962-5.2027-3.0502z" fill="#a8d81d" fill-opacity=".935"/>
   <path d="m341.36 631.08c-0.72394 0.40637-6.8243 0.022522-8.983-1.0568-2.8077-1.4039-3.7658 2.709-5.8125 4.7557-2.8633 2.8633-5.2644 3.2976-8.983 4.2273-3.7322 0.93298-7.7505 1.145-11.625 2.1136-2.5913 0.64783-5.7742 0.52844-8.4546 0.52844-4.1396 0-4.462 0.93884-5.2841 4.2273-0.8266 3.3063 0.49948 5.2552 2.1136 6.8693 1.5254 1.5254 5.6634 1.0568 7.9262 1.0568h8.983c3.8986 0 5.837-1.069 8.983-2.642 3.0262-1.5131 4.599-3.8848 7.3977-5.2841 2.5175-1.2587 4.7398-2.8983 7.3978-4.2273 1.6226-0.81134 3.0947-4.0757 3.6989-5.2841 1.0016-2.0031 2.025-2.1988 2.6421-5.2841z" fill="url(#aq)"/>
   <path d="m387.42 639.5c-0.33621-0.33618 1.2961-4.015-3.1705-2.642-4.2059-2.5375-5.2792 4.5424-8.4546 5.8125-3.5623 1.4249-6.4716 2.9852-10.04 3.6988-1.2476 0.24957-2.4207 5.984-2.6421 6.8694-0.71188 2.8475-1.5852 4.792-1.5852 7.9262 0 2.8788 1.3721 5.5994 3.1705 7.3978 1.5263 1.5262 4.4648 2.5693 6.8694 3.1705 2.4894 0.62231 5.5138 2.4927 7.9262 3.6988 3.0978 1.5489 5.0588 2.7936 7.9262 4.2273 3.0277 1.5139 3.8289 3.1786 4.7557-0.52844 0.83621-3.3448 1.0568-6.9351 1.0568-10.568 0-3.0712 0.164-6.2134-0.52841-8.983-0.64948-2.598-0.68973-5.1673 0-7.9262 0.43906-1.7562 7.0446 2.9056 7.3978 3.1705 1.8683 1.4012 5.2858 0.26337 6.8693-0.52838 2.9436-1.4718 4.7557-4.6824 4.7557-7.3978 0-2.3663 2.1216-4.2432 3.1705-6.3409 1.7727-3.5455 4.0841 2.9284 6.3409-1.5852 2.0727-4.1454 2.4558-5.2841-2.1136-5.2841-2.8075 0-5.9524-3.5046-8.4546-4.7557-5.2542-2.6271-1.9708-0.14276-5.8125 3.6989-3.0611 3.0611-2.5995 4.8984-7.3978 3.6988-2.4773-0.61932-3.2528 3.4996-3.6989 5.2841-0.94418 3.7768-6.0047-1.7774-6.3409-2.1136z" fill="url(#ar)"/>
   <path d="m498.31 635.34c-1.9128-1.7987-4.5101 0.062134-6.2758 1.1467-2.0202 1.411-4.2136 2.6085-6.6703 3.0145-2.6521 0.35364-3.8937 3.657-6.7069 3.4544-1.3606-0.13648-5.3819-1.4854-3.9962 1.2183 1.3371 2.0472 3.434 3.4029 5.6482 4.337 2.3651 0.81152 2.7628 3.3936 2.7662 5.5451 0.91748 3.1803 3.683 5.298 6.0045 7.4442 1.8065 2.3232 3.0521 5.1873 2.9696 8.1679 0.23929 2.3589 2.2248 3.9975 3.912 5.4287 1.8742 1.1648 3.7239-0.77856 4.5397-2.3375 2.4001-3.8238 1.9183-8.4814 2.1035-12.781-0.19772-2.1938 3.0353-5.4429 4.8112-3.3608 1.5987 2.6035 0.79291 6.2736 3.3538 8.3497 1.39 1.2004 3.1936 1.861 4.9854 2.1512 2.2602-0.26526 2.4774-3.0189 2.8608-4.7983 0.5329-2.2604 0.98035-4.8178-0.48981-6.8591-1.8514-2.4243-4.1706-4.4727-6.4539-6.4883-3.068-2.2701-5.7809-4.9708-8.7416-7.3666-1.7508-1.928-2.7943-4.3987-4.6205-6.2667z" fill="url(#as)"/>
   <path d="m364.73 627.93c-0.79956 0.4317-1.0869 2.7121-2.2523 3.5051-1.4008 1.3596-3.1254 2.4543-4.0304 4.2479-1.2936 1.9125-2.5115 3.8889-3.4435 6.0061 0.27606 2.3801 3.1898 2.0142 4.9348 2.1683 2.4864 0.21875 5.197-0.62537 6.6232-2.7862 1.4022-1.7302 0.96588-4.6054 3.0854-5.7994 2.285-0.95746 4.5714 0.93231 6.9026 0.34845 2.8433-0.1698 5.5332-1.9528 8.4134-1.3537 2.433 0.79907 4.2438 3.5232 7.0503 3.0151 3.025-0.51129 5.9831-2.1006 7.504-4.8632 1.3083-1.7371 3.2399-4.1593 0.61041-5.7944-1.8459-1.2485-3.8533-2.7844-6.2239-2.5095-2.4607 0.1203-4.8752 1.3959-7.3462 0.59778-3.0692-0.92578-6.1383-2.1532-9.4058-2.0388-2.2032-0.052429-4.388 0.67316-6.5762 0.14508-2.3132-0.71478-4.8179 0.57172-5.4278 2.9478-0.2456 0.69519-0.38251 1.4277-0.41772 2.1637z" fill="url(#at)"/>
   <path d="m218.96 443.07c20.965 50.55 108.44 77.923 193.2 79.298 73.75-3.145 139.19-14.601 167.25-63.438 6.2217-20.919 20.704-34.241 2.8836-70.647s-73.378-79.953-154.27-90.832c-61.341-8.2496-115.32 7.6032-173.01 44.695-29.664 19.072-57.009 50.374-36.044 100.92z" fill="#fff"/>
   <path d="m218.96 443.07c20.965 50.55 108.44 77.923 193.2 79.298 73.75-3.145 139.19-14.601 167.25-63.438 6.2217-20.919 20.704-34.241 2.8836-70.647-17.821-36.406-73.378-79.953-154.27-90.832-61.341-8.2496-115.32 7.6032-173.01 44.695-29.664 19.072-57.009 50.374-36.044 100.92z" fill="url(#au)"/>
   <path d="m218.96 443.07c20.965 50.55 108.44 77.923 193.2 79.298 73.75-3.145 139.19-14.601 167.25-63.438 6.2217-20.919 20.704-34.241 2.8836-70.647s-73.378-79.953-154.27-90.832c-61.341-8.2496-115.32 7.6032-173.01 44.695-29.664 19.072-57.009 50.374-36.044 100.92z" fill="url(#az)"/>
  </g>
  <path d="m564.36 458.19c0.28101-1.4592 1.457-1.4275 1.741 0.046997 0.13025 0.67648-0.21155 1.1101-0.875 1.1101-0.68103 0-1.0054-0.43329-0.86597-1.1571zm-58.049-1.7522c-0.24206-0.63083-0.11279-1.4742 0.28723-1.8742 0.52899-0.52902 0.84738-0.41461 1.1674 0.4195 0.24204 0.63071 0.11279 1.4741-0.28726 1.8741-0.52896 0.52902-0.84738 0.41461-1.1674-0.41937zm-91.15-4.972c-0.48947-0.79199 1.5427-2.8241 2.3346-2.3347 0.96561 0.5968 0.70612 2.1022-0.43799 2.5412-1.3608 0.52219-1.4524 0.5123-1.8966-0.20651zm103.17-4.3985c-1.384-1.384-1.3434-3.5895 0.065979-3.5895 0.60779 0 1.6305-0.47549 2.2726-1.0566 1.2758-1.1547 2.5733-0.7554 2.5733 0.79178 0 1.0979-2.6242 4.8933-3.3832 4.8933-0.26929 0-0.95721-0.4675-1.5287-1.039zm-66.425 35.518c-0.91315-1.3037-0.91702-1.5765-0.034882-2.4586 0.88214-0.8822 1.1488-0.8356 2.4039 0.41937 1.507 1.5071 1.2979 3.5055-0.36685 3.5055-0.53628 0-1.4373-0.65982-2.0022-1.4663zm24.887-46.368c-1.1477-0.9028-1.8044-2.238-2.1131-4.296-0.57455-3.8314 0.092834-5.0098 1.6603-2.9317 1.1676 1.5479 1.1888 1.5503 2.589 0.28308 2.8733-2.6003 5.5419 1.5109 3.7557 5.7858-1.2044 2.8825-3.2014 3.2752-5.892 1.1588zm-78.531-83.775c-0.57596-1.5011 0.18368-5.4881 1.3991-7.3431 1.1624-1.7739 2.8009-2.0204 4.6147-0.69409 1.603 1.1721 0.94067 3.925-1.4856 6.1748-2.77 2.5685-4.0545 3.0968-4.5282 1.8624zm144.61 76.655c-0.55768-0.978-1.1747-5.4891-0.82764-6.0508 0.54852-0.88748 4.9997 1.4005 4.9997 2.57 0 2.3745-3.2546 5.0898-4.1721 3.4808zm29.078-3.251c-0.24243-0.24249-0.4408-1.3963-0.4408-2.564s-0.45001-2.4965-1-2.953c-1.4058-1.1667 0.027466-2.7672 2.2445-2.5063 1.5401 0.1814 4.7065 3.7172 4.7065 5.2557 0 1.8717-4.2643 4.0134-5.5102 2.7676zm-141.56-3.2891c-0.82498-2.15 3.5374-6.5485 6.0205-6.0703 1.9297 0.37161 1.7387 2.2406-0.48819 4.7769-2.2349 2.5454-4.8199 3.1498-5.5323 1.2934zm80.779-13.515c-1.4266-0.8309-1.5101-3.4596-0.14575-4.5918 0.77774-0.64551 1.3931-0.6655 2.6634-0.0867 2.3992 1.0931 2.7855 2.72 0.99072 4.1733-1.723 1.3951-1.9295 1.4249-3.5084 0.50522zm-84.932 75.735c-2.5603-2.6741-2.9405-3.5493-1.8378-4.2308 1.8595-1.1493 6.9443 3.8935 6.1552 6.1043-0.49127 1.3766-1.7135 0.84619-4.3174-1.8735zm-106.27-80.882c-0.46048-0.745 1.8726-5.5585 3.247-6.6992 0.9108-0.75601 1.2768-0.6766 2.4943 0.54089l1.4269 1.4269-2.589 2.6514c-2.5436 2.6049-3.8798 3.2118-4.5792 2.08zm46.351-2.3283c-0.1933-0.50369 0.089661-1.5457 0.62878-2.3154 0.53915-0.76978 0.81754-1.6628 0.61862-1.9847-0.19888-0.32181 0.068909-0.94241 0.59512-1.3791 0.77054-0.6395 1.2838-0.46689 2.6376 0.88681 2.8811 2.8811 1.8819 5.7083-2.0173 5.7083-1.189 0-2.2649-0.40012-2.4628-0.91592zm104.01-0.4202c-0.91452-1.7088-0.33243-2.6312 1.6604-2.6312 0.86624 0 1.7551 0.29141 1.9752 0.64761 0.57187 0.92529-0.85281 3.3197-1.9752 3.3197-0.5199 0-1.2671-0.60123-1.6604-1.3361zm-43.303-5.9373c-0.55347-0.8956 0.19336-1.9837 1.3615-1.9837 0.52402 0 0.95282 0.59509 0.95282 1.3225 0 1.3689-1.5952 1.8247-2.3143 0.66119zm87.501 87.98c-0.24249-0.2424-0.44086-1.5071-0.44086-2.8105 0-1.8413 0.58942-3.0144 2.6436-5.2616 2.2087-2.4163 2.8069-2.7564 3.6367-2.0677 1.5616 1.296 1.3272 7.3279-0.35498 9.1335-1.2838 1.378-4.5192 1.9716-5.4844 1.0063zm-107.01-90.552c-3.1278-1.1633-3.7533-2.4132-1.8184-3.6337 0.85974-0.5423 1.4545-0.51791 2.3143 0.094788 0.63641 0.45361 1.8483 1.1225 2.693 1.4863 0.9075 0.3909 1.4486 1.1118 1.3224 1.762-0.29474 1.5199-1.0714 1.5699-4.5114 0.29059zm131.04-0.9211c-1.1019-1.3277-0.024536-2.3081 2.8039-2.5513 2.8867-0.24832 3.6811 0.6691 2.0188 2.3314-1.2811 1.2811-3.8449 1.398-4.8227 0.21991zm-194.45-6.0073c-0.58951-0.7103-0.60165-1.082-0.046631-1.4251 1.0784-0.6665 2.4163 0.814 1.5334 1.6969-0.47818 0.47818-0.93347 0.39499-1.4868-0.27182zm95.938 0.1115c-1.9769-1.9769 0.52454-7.1412 3.459-7.1412 1.2278 0 1.7614 0.67819 2.8421 3.6119 0.73178 1.9865 1.1706 3.7718 0.9751 3.9673-0.69272 0.69272-6.4948 0.34351-7.2763-0.43799zm133.72-0.7455c-0.58893-1.5347 0.93665-4.5288 2.185-4.2884 1.637 0.31531 2.748 3.7289 1.4755 4.5337-1.4097 0.89172-3.272 0.76691-3.6605-0.2453zm-263.91-5.5076c-0.5871-1.5299 1.2176-4.4842 2.887-4.7261 1.149-0.1665 1.4366 0.20508 1.6635 2.1495 0.15094 1.2929-0.022919 2.648-0.38632 3.0114-1.046 1.046-3.7024 0.76871-4.1643-0.43481zm183.4-1.9901c-0.24246-0.24249-0.44083-1.2255-0.44083-2.1846 0-2.6896 3.6759-5.8652 7.3762-6.3724 3.6947-0.50641 5.0166 0.73029 1.9305 1.8061-1.464 0.51041-2.0333 1.1286-2.0333 2.208 0 2.3159-2.4444 4.9837-4.5664 4.9837-1.004 0-2.0238-0.1984-2.2663-0.4408zm-25.318-5.0143c-2.9079-3.3183-3.1061-3.7417-2.2394-4.7859 0.71518-0.86182 1.0537-0.81509 2.7272 0.37659 2.594 1.847 3.5531 3.7196 2.5341 4.9475-1.063 1.2808-1.4952 1.2039-3.0218-0.53821zm-121.47-0.2755c-1.3088-1.3088-0.22128-3.7514 3.0306-6.8067 1.9093-1.7939 3.6682-3.0543 3.9086-2.801 0.5704 0.6011-0.73108 8.1504-1.5898 9.222-0.69357 0.86539-4.5888 1.1463-5.3494 0.38571zm24.289-2.3112c-0.26813-0.43381 0.16232-1.2842 0.98871-1.9534 0.80499-0.65189 1.4122-1.5707 1.3493-2.0419-0.34912-2.6176 1.6667-3.5445 3.3355-1.5336 0.66196 0.79752 0.42462 1.4629-1.297 3.6367-2.1336 2.6939-3.5126 3.2901-4.3765 1.8922zm170.33-0.4573c0-1.5716 1.799-2.7417 4.2154-2.7417 3.8628 0 2.4927 2.8905-1.7359 3.6621-2.2143 0.40399-2.4796 0.3056-2.4796-0.92041zm-138.63-0.4704c-0.56052-1.4607 1.3199-4.5314 2.9288-4.7828 1.7198-0.26871 2.9397 1.3818 2.6821 3.6286-0.18631 1.625-0.52515 1.8842-2.698 2.0639-1.8488 0.15292-2.5944-0.079895-2.9129-0.9097zm45.634 77.188c-1.3591-0.39032-1.6349-0.85672-1.5508-2.6226 0.14117-2.9658 1.9629-4.8198 4.4925-4.5723 1.8558 0.18149 2.0335 0.4176 2.2178 2.9455 0.1633 2.2409-0.077484 2.9428-1.3043 3.8021-0.82752 0.57962-1.6615 1.0242-1.8534 0.98792-0.19183-0.036194-1.0927-0.27951-2.0019-0.54059zm-15.144-82.285c-0.53769-1.4012-0.11887-3.4553 0.7045-3.4553 0.92285 0 1.2348 2.9879 0.39923 3.8235-0.48657 0.4866-0.81818 0.37592-1.1037-0.3682zm87.821 5.3656c-2.4112-3.9547-1.4457-5.0603 1.6225-1.8578 1.1278 1.1771 1.7065 2.3511 1.4669 2.9755-0.61578 1.6047-1.6598 1.227-3.0894-1.1177zm-77.201-16.029c-2.7906-2.7906-1.7461-5.4396 1.346-3.4136 1.6527 1.0829 2.234 3.8847 0.96829 4.6669-0.36063 0.2229-1.4021-0.3411-2.3143-1.2533zm30.822-1.2909c-0.80374-0.96848-0.3475-1.7503 1.0214-1.7503 0.98498 0 1.207 1.7046 0.29532 2.268-0.32248 0.19931-0.91501-0.033691-1.3167-0.5177zm-177.29-4.3472c0-1.9901 2.8609-5.0298 4.0451-4.2979 1.1076 0.68451 0.57889 3.3625-0.94687 4.7959-2.0919 1.9652-3.0982 1.8035-3.0982-0.49802zm173.13 124.42c-1.2198-1.2197 0.57349-8.8163 2.0812-8.8163 0.33319 0 1.3898 0.6167 2.348 1.3705 3.1254 2.4584 1.6439 7.8866-2.1524 7.8866-1.0098 0-2.0343-0.1983-2.2768-0.4408zm48.525-128.55c-0.4292-0.4292-2.0508-0.94989-3.6037-1.1572-2.2495-0.3002-2.8234-0.64368-2.8234-1.6901 0-1.0829 0.61951-1.4025 3.5298-1.8214 6.3965-0.92047 11.708 1.6329 9.3376 4.4889-0.95703 1.1532-5.3446 1.2756-6.4404 0.17978zm-163.5-2.2753c-0.51303-1.3493-0.39136-2.1913 0.54935-3.802 1.798-3.0786 3.1475-2.7184 2.9871 0.79721-0.20386 4.4695-2.3018 6.2521-3.5364 3.0048zm115.98 0.7294c-0.5051-1.3162 0.97885-4.8459 2.3357-5.5556 1.1082-0.57968 3.6352 0.076416 4.2737 1.1096 0.20187 0.32669-0.41028 1.6865-1.3604 3.0219-1.8323 2.5752-4.5268 3.3063-5.249 1.4241zm-83.773-3.4533c-0.19217-0.31091-0.079926-0.99741 0.24939-1.5255 0.63287-1.015 2.6074-0.30261 2.8365 1.0234 0.14261 0.82541-2.6093 1.2733-3.0858 0.50211zm32.953-1.4966c-0.99353-1.0979-1.0695-1.6099-0.44284-2.9853 1.3836-3.0365 6.069-3.9371 6.0632-1.1655-0.003479 1.6716-2.4504 5.4759-3.522 5.4759-0.49448 0-1.4388-0.59631-2.0983-1.3251zm-111.1-7.2998c-0.59036-0.9552 0.91687-2.6159 2.3741-2.6159 1.8738 0 2.1138 1.1269 0.48322 2.269-1.7387 1.2178-2.2786 1.2834-2.8573 0.34689zm179.6-3.5395c-0.45062-0.54303-0.72214-1.6732-0.6033-2.5114 0.19806-1.397 0.49182-1.5046 3.5222-1.2895 3.5007 0.24841 4.411 0.92435 4.1364 3.0715-0.13699 1.0713-0.74518 1.3599-3.2025 1.5196-2.0776 0.13504-3.2916-0.11395-3.8528-0.79013zm-48.491-1.7743c-1.7035-0.99222-1.5741-4.5756 0.16528-4.5756 0.72739 0 1.3225 0.34851 1.3225 0.77448 0 0.42596 0.47546 1.2999 1.0566 1.942 1.807 1.9967-0.018311 3.3304-2.5443 1.8591zm-62.981-2.5908c-0.74075-1.1986 3.7999-5.9272 5.704-5.9403 2.3927-0.016388 3.5527 1.4598 2.4876 3.1654-1.6845 2.6974-7.1047 4.5334-8.1916 2.7749zm-33.59 89.896c-0.5581-1.4544 2.3015-5.705 4.1501-6.169 2.7774-0.69708 3.1018 1.0772 0.66101 3.6156-2.8318 2.9451-4.3514 3.7516-4.8111 2.5534zm114.09-90.996c-1.2559-0.50678-0.9885-2.5166 0.51593-3.8782 1.5292-1.3839 4.2734-0.82446 5.4936 1.1198 1.4163 2.257-2.639 4.1184-6.0095 2.7583zm-40.339-12.89c-1.1445-1.1445-1.0268-3.1652 0.2121-3.6406 1.7934-0.68817 4.3721 0.92911 4.1356 2.5937-0.2431 1.7112-3.0159 2.3788-4.3478 1.0469zm-23.569-1.1139c-1.0138-1.6403 1.2693-3.7455 3.2414-2.9888 1.2598 0.48343 1.3048 2.884 0.054077 2.884-0.51578 0-1.3783 0.16904-1.9168 0.37567-0.53848 0.20664-1.1589 0.084686-1.3787-0.27094zm-38.746-5.252c0-0.64893 0.82092-1.6648 1.8243-2.2575 1.5606-0.92188 2.0624-0.95023 3.4714-0.19611 2.0305 1.0867 1.7256 1.7426-1.2998 2.7971-3.1882 1.1112-3.9959 1.0418-3.9959-0.34341z" fill="url(#av)"/>
 </g>
</svg>
